<svg xmlns="http://www.w3.org/2000/svg" width="78.337" height="50" viewBox="0 0 78.337 50">
  <defs>
    <style>
      .cls-1 {
        fill: #a3a3a3;
      }
    </style>
  </defs>
  <path id="PAPER" class="cls-1" d="M76.26,53.056a5.786,5.786,0,0,0,.7-2.993,6.686,6.686,0,0,0-6.689-6.689H54.255v-.7a6.866,6.866,0,0,0-6.513-6.513L32.954,35.8A18.574,18.574,0,0,0,19.4,41.086l-7.746,7.394H4.612a2.112,2.112,0,0,0,0,4.225h7.922a2,2,0,0,0,1.408-.528l8.45-7.922a14.039,14.039,0,0,1,10.562-4.049l14.787.352a2.407,2.407,0,0,1,2.465,2.465,2.647,2.647,0,0,1-.7,1.936,2.827,2.827,0,0,1-1.936.88H40a23.464,23.464,0,0,0-4.929.528l-1.408.352a2.072,2.072,0,0,0,.88,4.049l1.408-.352c.7-.176,1.408-.176,2.112-.352-3.169,9.682-11.266,8.8-11.618,8.8a2.12,2.12,0,0,0-2.288,1.76v.352a2.091,2.091,0,0,0,1.76,2.112c.176,0,12.675,1.408,16.548-13.027h5.105a6.661,6.661,0,0,0,4.929-2.112H70.45a2.465,2.465,0,0,1,0,4.929H51.614a2.112,2.112,0,0,0,0,4.225H73.8a2.465,2.465,0,0,1,0,4.929H49.678a2.034,2.034,0,0,0-2.112,2.112,2.141,2.141,0,0,0,2.112,2.112h20.6a2.465,2.465,0,1,1,0,4.929H46.685a2.112,2.112,0,0,0,0,4.225H61.649a2.465,2.465,0,0,1,0,4.929H51.438a55.131,55.131,0,0,0-8.8.7h-.352c-6.337.88-23.413,3.521-27.462-6.161-.352-1.232-1.056-1.76-1.936-1.76H4.612A2.141,2.141,0,0,0,2.5,75.237,2.034,2.034,0,0,0,4.612,77.35h7.041c5.985,11.09,24.293,8.45,31.335,7.394h.352a49.133,49.133,0,0,1,8.274-.7h10.21a6.686,6.686,0,0,0,6.689-6.689,5.623,5.623,0,0,0-.528-2.465h2.641A6.686,6.686,0,0,0,77.316,68.2a8.293,8.293,0,0,0-.7-2.993,6.711,6.711,0,0,0,4.225-6.161A7.4,7.4,0,0,0,76.26,53.056Z" transform="translate(-2.5 -35.794)"/>
</svg>
