<svg xmlns="http://www.w3.org/2000/svg" width="64.914" height="50" viewBox="0 0 64.914 50">
  <defs>
    <style>
      .cls-1 {
        fill: #a3a3a3;
      }
    </style>
  </defs>
  <path id="ROCK" class="cls-1" d="M67.414,56.517A7.053,7.053,0,0,0,64.5,50.851a6.967,6.967,0,0,0-5.99-11.008H52.036a9.237,9.237,0,0,0-7.123-4.695l-9.389-1.3A18.182,18.182,0,0,0,21.6,38.063l-9.389,8.256H4.766A2.315,2.315,0,0,0,2.5,48.585a2.213,2.213,0,0,0,2.266,2.266h8.256a2.611,2.611,0,0,0,1.457-.486l10.037-8.9a12.956,12.956,0,0,1,10.36-3.238l9.389,1.3a5.442,5.442,0,0,1,4.695,5.5L48.8,56.355a2.426,2.426,0,0,1-2.59,2.428,2.5,2.5,0,0,1-2.428-2.752l.324-7.77a2.283,2.283,0,0,0-1.781-2.266l-4.856-.809a2.129,2.129,0,0,0-.648,4.209l2.428.324a11.846,11.846,0,0,1-11.494,7.123,2.3,2.3,0,0,0-2.428,1.943v.162a2.007,2.007,0,0,0,1.943,2.1,15.658,15.658,0,0,0,12.3-4.533A6,6,0,0,0,41.513,60.4a14.156,14.156,0,0,0,1.619,1.3A7.794,7.794,0,0,0,42,65.582a7.057,7.057,0,0,0,2.752,5.5,7.083,7.083,0,0,0-1.3,4.047,7.732,7.732,0,0,0,.648,2.914A83.751,83.751,0,0,1,26.782,79.18a11.615,11.615,0,0,1-9.875-5.5l-1.3-2.1a2.031,2.031,0,0,0-1.781-.971H4.766A2.315,2.315,0,0,0,2.5,72.867a2.213,2.213,0,0,0,2.266,2.266h7.608l.648.971a16.1,16.1,0,0,0,13.6,7.608c5.666,0,13.922-.162,21.368-1.943a9.474,9.474,0,0,0,2.1.324h7.123A7.19,7.19,0,0,0,64.5,75.133a7.6,7.6,0,0,0-1.3-4.209,6.915,6.915,0,0,0,1.457-9.551C66.281,60.888,67.414,58.783,67.414,56.517ZM53.492,44.376H59a2.59,2.59,0,1,1,0,5.18h-5.5l.162-4.533A.973.973,0,0,1,53.492,44.376Zm4.047,33.995H50.093a2.59,2.59,0,1,1,0-5.18h7.447a2.557,2.557,0,0,1,2.59,2.59A2.662,2.662,0,0,1,57.539,78.371Zm1.3-9.713h-10.2a2.59,2.59,0,1,1,0-5.18h10.2a2.557,2.557,0,0,1,2.59,2.59A2.463,2.463,0,0,1,58.835,68.658Zm1.619-9.551H52.521a7.626,7.626,0,0,0,.648-2.752V53.927h7.285a2.59,2.59,0,0,1,0,5.18Z" transform="translate(-2.5 -33.713)"/>
</svg>
