<svg xmlns="http://www.w3.org/2000/svg" width="84.8" height="50" viewBox="0 0 84.8 50">
  <defs>
    <style>
      .cls-1 {
        fill: #a3a3a3;
      }
    </style>
  </defs>
  <path id="SCISSORS" class="cls-1" d="M53.11,72.793h8.557a2,2,0,0,1,1.821,1.092l1.274,2a11.448,11.448,0,0,0,9.65,5.462,124.348,124.348,0,0,0,15.476-.91,7.634,7.634,0,0,1-.728-2.913,3.554,3.554,0,0,1,.182-1.275,6.548,6.548,0,0,1,2-3.824,7.184,7.184,0,0,1-1.821-4.552,3.555,3.555,0,0,1,.182-1.275A8.584,8.584,0,0,1,90.8,63.872,6.539,6.539,0,0,1,88.978,62.6a6.292,6.292,0,0,1-1.821-3.824,15.676,15.676,0,0,1-12.017,4.37,2.327,2.327,0,0,1-2-2.185v-.182a2.369,2.369,0,0,1,2.367-2,11.768,11.768,0,0,0,11.288-6.919l-2.367-.364a2.112,2.112,0,0,1,.546-4.188l4.916.728a2.163,2.163,0,0,1,1.821,2.185l-.364,7.647a2.489,2.489,0,0,0,2.549,2.549,2.6,2.6,0,0,0,2.549-2.549l.182-11.106v-.182a5.311,5.311,0,0,0-4.552-5.28L82.788,40.02a12.973,12.973,0,0,0-10.2,3.1L62.76,51.855A2.067,2.067,0,0,1,61.3,52.4H53.11a2.185,2.185,0,0,1,0-4.37h7.465l9.286-8.193a17.849,17.849,0,0,1,13.655-4.188L92.8,36.925a9.3,9.3,0,0,1,7.283,5.28l24.4-4.37a6.848,6.848,0,0,1,8.011,5.644,6.94,6.94,0,0,1-5.644,8.011l-13.837,2.367,17.115,3.459a6.166,6.166,0,0,1,4.37,2.913,6.32,6.32,0,0,1,1.092,5.1,6.542,6.542,0,0,1-2.731,4.37,6.32,6.32,0,0,1-5.1,1.092l-14.566-2.549a6.017,6.017,0,0,1,0,2.549,6.542,6.542,0,0,1-2.731,4.37,1.38,1.38,0,0,1-.728.364,6.591,6.591,0,0,1,.546,4.188,7.125,7.125,0,0,1-8.011,5.644l-7.283-1.275c-.364,0-.546-.182-.91-.182a100.571,100.571,0,0,1-19.664,1.639,15.826,15.826,0,0,1-13.291-7.465l-.546-.91H53.11a2.185,2.185,0,0,1,0-4.37Zm73.011-25.126a2.553,2.553,0,0,0,2.185-2.549v-.364a2.362,2.362,0,0,0-2.913-2l-24.4,4.188v.182l-.182,4.916ZM128.488,66.6a2.117,2.117,0,0,0,1.821-.364A2.651,2.651,0,0,0,131.4,64.6a2.528,2.528,0,0,0-.364-2A2.651,2.651,0,0,0,129.4,61.5l-28.4-5.1v1.639A5.083,5.083,0,0,1,99.9,61.323Zm-19.482,3.641V69.88a3.43,3.43,0,0,0-.364-1.457A2.651,2.651,0,0,0,107,67.331L97.171,65.51a2.524,2.524,0,0,0-2.913,2,2.117,2.117,0,0,0,.364,1.821,2.651,2.651,0,0,0,1.639,1.092l9.832,1.821a2.117,2.117,0,0,0,1.821-.364A4.3,4.3,0,0,0,109.006,70.244Zm-14.93,8.739a2.651,2.651,0,0,0,1.639,1.092L103,81.351a2.562,2.562,0,0,0,3.1-2,2.524,2.524,0,0,0-2-2.913L96.807,75.16a2.562,2.562,0,0,0-3.1,2A3.283,3.283,0,0,0,94.076,78.984Z" transform="translate(-50.925 -35.538)"/>
</svg>
